<svg version="1.2" xmlns="http://www.w3.org/2000/svg" viewBox="0 0 300 300" width="300" height="300"><style>.a{fill:#ce1628}.b{fill:#fff}.c{fill:#f3c108}</style><path class="a" d="m162.6 276.3l1.6-2.5 3 10.4h7.3l-5.8-17.6 5.8-11.7h-7.4l-4.5 11.9v-11.9h-6.5v29.3h6.5z"/><path class="a" d="m137.2 265.9h-3.8v-10.9h-6.9v29.5h6.9v-12.7h3.8v12.7h6.7v-29.5h-6.7z"/><path class="a" d="m223.5 278.9h4.9l0.6 5.6h7.4l-5.7-29.7h-9l-5.5 29.7h6.5zm2.3-17.9l0.1-0.6v-0.4h0.7v0.4l0.1 0.6 1.2 13.2h-3.9z"/><path class="a" d="m98.7 248h-5.4l-1.5 4.8h3.6z"/><path class="a" d="m183.6 271.8h3.8v12.7h6.7v-29.5h-6.7v10.9h-3.8v-10.9h-6.9v29.5h6.9z"/><path class="a" d="m89.6 254.8l-5.4 29.7h6.6l0.7-5.6h4.9l0.5 5.6h7.4l-5.7-29.7zm2.4 19.5l1.7-13.2 0.1-0.6v-0.5h0.7l0.1 1.1 1.3 13.2z"/><path class="b" d="m130.2 185v27.8h1.1q1.4 0 2.8-0.1l1.1-0.1c0.5 0 0.9-0.1 1.3-0.2q1.4-0.2 2.8-0.5c5.9-1.5 11.4-4.6 15.7-8.9 0.5-0.6 1.1-1.2 1.6-1.8q0.4-0.5 0.7-0.9l1-1.3q0.6-0.9 1.1-1.8 0.4-0.5 0.7-1c0.3-0.5 0.5-1 0.8-1.5q0.1-0.3 0.3-0.6 0.8-1.5 1.4-3.1c0-0.2 0.1-0.3 0.1-0.4q0.4-1 0.6-1.9c0.9-3 1.3-6 1.3-9 0-3.1-0.5-6.2-1.4-9.2-0.1-0.6-0.3-1.2-0.5-1.8q-0.1-0.3-0.3-0.6-0.5-1.4-1.1-2.7-0.2-0.5-0.5-1c-0.2-0.4-0.4-0.8-0.7-1.2-0.2-0.4-0.5-1-0.8-1.5-0.3-0.4-0.5-0.7-0.7-1q-0.7-0.9-1.4-1.8l-0.5-0.7q-2.7-3.2-6.1-5.6l-18.1 28.2z"/><path class="b" d="m144.7 149.3q-2.7-1.2-5.4-1.9c-0.9-0.2-1.9-0.4-2.7-0.5l-1.4-0.2-1.1-0.1c-0.9 0-1.8-0.2-2.8-0.2h-1.2v31.2z"/><path class="b" d="m139.3 142.9q3.8 0.8 7.4 2.4l32.7-64.1-49.2 25v29.4h9.1z"/><path class="c" d="m128.5 212.7l-1.2-0.1-1.2-0.2q-1.7-0.3-3.4-0.7c-6-1.6-11.3-4.8-15.6-9.4q-1.1-1.1-2.1-2.4c-0.1-0.2-0.3-0.5-0.5-0.7q-1.7-2.3-2.9-4.8c0-0.1-0.1-0.3-0.2-0.4q-1.3-2.7-2.1-5.7c-0.8-2.8-1.1-5.7-1.2-8.7 0.1-2.9 0.5-5.9 1.3-8.8q0.8-2.9 2.1-5.6c0-0.1 0.1-0.3 0.2-0.4 0.3-0.6 0.5-1.1 0.9-1.7l0.3-0.5c0.5-0.8 1-1.6 1.6-2.4q0.3-0.5 0.7-1 0.4-0.6 0.9-1.1 0.7-0.9 1.5-1.6c4.2-4.3 9.4-7.4 15.2-8.9q1.6-0.4 3.3-0.7l1.2-0.2 1.2-0.2 1.7-0.1v-10.8h-7.5v7.5c-7.3 1.7-13.9 5.6-19 11.1l-6.6-3.9-8.3 14.4 6.6 3.8c-1.1 3.6-1.7 7.3-1.6 11.1 0 3.7 0.5 7.4 1.6 10.9l-6.6 3.8 8.3 14.4 6.5-3.8c5.1 5.6 11.7 9.5 19.1 11.3v7.3h7.5v-10.7c-0.6 0-1.1 0-1.7-0.1"/><path class="c" d="m139.3 216.4c7.5-1.6 14.3-5.5 19.6-11.2l6 3.5 8.3-14.3-6-3.5c2.3-7.4 2.3-15.3 0-22.6l6-3.5-8.3-14.4-6.2 3.6q-2.6-2.8-5.7-5l-2.4 3.6q3.4 2.5 6.1 5.6l0.5 0.7q0.7 0.9 1.4 1.8 0.3 0.6 0.7 1.1c0.2 0.3 0.6 0.9 0.9 1.4 0.2 0.5 0.4 0.8 0.6 1.3q0.3 0.5 0.5 1 0.6 1.3 1.1 2.6 0.2 0.3 0.3 0.7c0.2 0.6 0.4 1.1 0.6 1.7 0.8 3 1.3 6.1 1.3 9.2 0 3-0.4 6.1-1.3 9q-0.2 1-0.6 1.9c0 0.2-0.1 0.3-0.1 0.4q-0.6 1.6-1.3 3.1-0.2 0.4-0.3 0.7c-0.3 0.4-0.5 1-0.8 1.4q-0.3 0.6-0.7 1.1c-0.3 0.6-0.7 1.2-1.1 1.7-0.4 0.6-0.7 0.9-1 1.3-0.3 0.4-0.5 0.6-0.7 0.9-0.5 0.6-1.1 1.2-1.6 1.8-4.3 4.4-9.8 7.4-15.7 8.9q-1.4 0.3-2.8 0.5-0.6 0.2-1.3 0.3h-1.1q-1.4 0.2-2.8 0.2h-1.1v10.7h9.1z"/><path class="c" d="m131.4 146.4c0.9 0 1.8 0 2.7 0.1l1.2 0.2 1.3 0.2c0.9 0.1 1.8 0.3 2.7 0.5q2.8 0.7 5.4 1.8l2-3.9q-3.5-1.6-7.4-2.4v-7.3h-9.1v10.8h1.1"/><path class="a" d="m169 41.9h4.3v2.6h-4.3z"/><path class="a" d="m209.7 40q0.9 0.2 1.8 0h-0.7q-0.5 0-1.1 0"/><path class="a" d="m208.6 41.9h4.3v2.6h-4.3z"/><path class="a" d="m179.2 20.2h4.6v19.7h-4.6z"/><path class="a" d="m169.4 36.2h3.3l0.4 3.7h5l-3.9-19.7h-6l-3.6 19.7h4.4zm1.5-12.2v-0.3h0.5v0.2l0.9 9.2h-2.6z"/><path class="a" d="m195.6 31.4h2.5v8.5h4.5v-19.7h-4.5v7.3h-2.5v-7.3h-4.7v19.7h4.7z"/><path class="a" d="m50.2 300h199.6v-300h-199.6zm36.5-267.8l4-12.2 3.9 12.2h12.8l-10.3 7.5 3.9 12.2-10.3-7.6-10.4 7.6 4-12.1-10.4-7.5zm161.4 266.2h-196.4v-58.4h67.6c1.7 0.2 10.5 1.5 10.8 9 0-1.8 0.5-8.6 8-9h109.9zm0.1-60h-109.5c-2.7 0.1-6.5 0-8.5 4.8v-19.7h-7.5v-7.3c-7.3-1.8-14-5.7-19.1-11.3l-6.5 3.8-8.3-14.4 6.6-3.8c-1.1-3.5-1.6-7.2-1.6-10.9 0-3.8 0.5-7.5 1.7-11.1l-6.7-3.8 8.3-14.3 6.6 3.7c5.1-5.5 11.7-9.4 19-11.1v-7.5h7.5v-31.4l-42.5 21.6 42.5-27.6v-96.5h118z"/><path class="a" d="m149.1 151.6l-18 28.3 15.2-29.8q-0.8-0.4-1.6-0.7l-14.5 28.4v-31.4l-1.7 0.1-1.2 0.2-1.2 0.2q-1.7 0.3-3.4 0.7c-5.7 1.5-11 4.6-15.1 8.9q-0.8 0.7-1.5 1.6-0.5 0.6-0.9 1.1c-0.3 0.4-0.5 0.6-0.7 1-0.6 0.8-1.1 1.6-1.7 2.4l-0.3 0.5c-0.3 0.6-0.5 1.1-0.9 1.7l-0.2 0.4q-1.3 2.7-2.1 5.6c-0.8 2.9-1.2 5.9-1.2 8.8 0 3 0.4 5.9 1.2 8.7q0.8 3 2.1 5.7c0 0.1 0.1 0.3 0.2 0.4q1.2 2.5 2.9 4.8c0.2 0.2 0.4 0.5 0.5 0.7q1 1.3 2.1 2.4c4.3 4.6 9.7 7.8 15.6 9.4q1.7 0.4 3.4 0.7l1.2 0.2 1.2 0.1c0.6 0 1.1 0.1 1.7 0.1v-27.8l2.3-4.2 18.1-28.2q-0.7-0.5-1.5-1z"/><path class="a" d="m146.7 145.3q0.8 0.4 1.6 0.8l35.1-69-53.2 27v2l49.2-24.9z"/><path class="a" d="m191.5 58.3q-0.5 1.3-0.5 2.7c0 2.2 0.9 4.4 2.5 6 1.6 1.6 3.7 2.4 6 2.4q1.3 0 2.6-0.4l-50.6 78.9q0.7 0.5 1.5 1.1l52.7-82.3q1-1.4 1.8-3c0.9-2.6 0.5-5.4-1.1-7.6-1.6-2.2-4.2-3.5-6.9-3.5-1.2 0-2.5 0.3-3.6 0.8l-0.9 0.5-0.4 0.2-64.4 41.9v2.2zm7.9-4c3.7 0 6.7 3 6.7 6.7 0 3.7-3 6.7-6.7 6.7-3.7 0-6.6-3-6.6-6.7 0-3.7 2.9-6.7 6.6-6.7z"/><path class="a" d="m148.3 146.1q-0.8-0.4-1.6-0.8l-2 3.9q0.8 0.4 1.6 0.8z"/><path class="a" d="m149.1 151.6q0.8 0.5 1.5 1l2.4-3.6q-0.7-0.6-1.5-1.1z"/><path class="c" d="m87.7 125.7l42.5-21.5v-6.1z"/><path class="c" d="m199.5 67.7c3.7 0 6.6-3 6.6-6.7 0-3.7-3-6.6-6.6-6.6-3.7 0-6.7 3-6.7 6.7 0 1.7 0.7 3.4 1.9 4.7 1.3 1.2 3 1.9 4.8 1.9z"/><path class="c" d="m202.1 69.1q-1.3 0.4-2.7 0.4c-4.6 0-8.4-3.8-8.4-8.4q0-1.4 0.5-2.8l-61.3 39.8v6l53.3-27-35.2 69q1.7 0.8 3.2 1.8z"/><path class="c" d="m131.1 179.9l18-28.3q-1.4-0.9-2.8-1.6z"/><path class="c" d="m149.1 151.6l2.4-3.7q-1.6-1-3.2-1.8l-2.1 3.9q1.5 0.7 2.9 1.6"/><path class="c" d="m80.3 51.9l10.4-7.5 10.3 7.5-3.9-12.1 10.3-7.6h-12.8l-3.9-12.2-4 12.2h-12.8l10.4 7.6z"/><path class="c" d="m93.8 260.5l-0.1 0.6 0.1-0.6z"/><path class="c" d="m226.6 260.4l0.1 0.7z"/><path class="c" d="m115.5 259.7q0.3 0.1 0.6 0.3-0.3-0.3-0.6-0.3z"/><path class="c" d="m225.8 260.5v0.6z"/><path class="a" d="m81.6 272.4c0-2-1.7-3.7-3.8-3.7 2-0.2 3.5-1.8 3.5-3.8v-4.6c-0.1-3.2-2.7-5.6-5.8-5.6h-10.4v29.4h10.7c3.2 0 5.8-2.6 5.8-5.8v-5.8m-9.9-6.1v-6.6h2.4c0.7 0.1 1.2 0.7 1.2 1.4v3.6c0 0.7-0.5 1.4-1.3 1.6q-0.2 0-0.4 0zm2.7 13h-2.7v-8.1h2.6c0.8 0 1.4 0.6 1.5 1.4q0 0.1 0 0.1v5.1c0 0.4-0.1 0.8-0.4 1.1-0.3 0.2-0.6 0.4-1 0.4"/><path class="c" d="m75.8 272.9q0 0 0-0.1 0 0.1 0 0.2z"/><path class="c" d="m75.3 264.7v-3.5c0-0.7-0.5-1.2-1.2-1.4h-2.4v6.6h1.9q0.2 0.1 0.4 0c0.8-0.1 1.3-0.8 1.3-1.6"/><path class="c" d="m72.6 279.5q-0.5 0-0.9 0 0.4 0 0.9 0z"/><path class="c" d="m75.8 277.9v-4.9q0-0.1 0-0.2c-0.1-0.8-0.8-1.4-1.6-1.4h-2.5v8.1q0.4 0 0.9 0-0.5 0-0.9 0h2.7c0.4 0 0.7-0.2 1-0.4 0.3-0.3 0.4-0.7 0.4-1.1v-0.1"/><path class="c" d="m94.7 261.1l-0.1-1.1h-0.7l-0.1 0.5-0.1 0.6-1.7 13.2h3.9z"/><path class="c" d="m226.7 261.1v-0.1l-0.1-0.6v-0.4h-0.7l-0.1 0.5v0.6l-1.7 13.2h3.9z"/><path class="c" d="m117 277.8q0-0.1 0-0.2v0.4q0-0.1 0-0.2z"/><path class="c" d="m117 278.1v-0.1q0 0 0 0.1z"/><path class="c" d="m113.1 278.1q-0.1-0.1 0-0.3z"/><path class="c" d="m138.1 240.1c-7.5 0.4-8 7.2-8 9-0.3-7.6-8.9-9-10.8-9h-67.6v58.4h196.4v-58.4zm-44.8 7.9h5.4l-3.4 4.8h-3.6zm-11.7 24.5v5.8c0 3.2-2.6 5.8-5.8 5.8h-10.6v-29.4h10.3c3.2 0 5.8 2.4 5.9 5.6v4.6c0 1.9-1.5 3.6-3.5 3.7 2.1 0 3.8 1.7 3.8 3.8zm15.3 12l-0.5-5.5h-4.9l-0.7 5.5h-6.5l5.4-29.6h9l5.7 29.6zm26.6-20.2v1.7h-6.5v-4.4c0-0.9-0.7-1.6-1.5-1.8h-0.1q-0.2-0.1-0.4 0c-0.5 0-1 0.2-1.4 0.5-0.3 0.4-0.5 0.9-0.5 1.4v16.3q-0.1 0.1 0 0.2c0.1 1 0.9 1.8 1.9 1.8 1 0 1.8-0.8 2-1.8q0 0 0 0v-5.3h6.5v5.1c-0.1 3.8-4 6.9-8.7 6.9-4.7 0-8.7-3.2-8.7-7.1v-16c0-3.9 3.9-7.1 8.7-7.1 4.8 0 8.7 3.2 8.7 7.1zm20.4 20.3h-6.8v-12.6h-3.7v12.6h-6.9v-29.5h6.9v11h3.8v-11h6.8zm30.5-0.3h-7.1l-3.1-10.4-1.6 2.5v7.9h-6.4v-29.3h6.4v11.9l4.5-11.9h7.4l-5.8 11.7zm19.7 0.3h-6.8v-12.6h-3.7v12.6h-6.9v-29.5h6.9v11h3.8v-11h6.8zm20.3-20.9v14.1c0 3.9-3.8 7-8.6 7-4.8 0-8.7-3.1-8.7-7v-15.9c0-3.9 3.9-7.1 8.7-7.1 4.8 0 8.6 3.2 8.6 7.1zm14.5 20.8l-0.5-5.6h-5l-0.7 5.6h-6.5l5.4-29.7h9l5.8 29.7z"/><path class="a" d="m114.8 254.7c-4.8 0-8.7 3.1-8.7 7v16c0 3.9 3.9 7 8.7 7 4.9 0 8.6-3 8.8-6.8v-5.2h-6.6v4.9q0 0.1 0 0.2 0 0.1 0 0.2v0.1c-0.1 1-1 1.7-2 1.7-1 0-1.8-0.7-1.9-1.7 0 0 0-0.2 0-0.3v-16.2c0-0.5 0.2-1 0.5-1.4 0.4-0.4 0.9-0.6 1.5-0.6q0.1 0 0.3 0h0.1q0.3 0.1 0.6 0.3c0.6 0.3 0.9 1 0.9 1.6v4.4h6.6v-4.2c0-3.9-3.9-7.1-8.7-7.1"/><path class="a" d="m203.7 261.6v0.1q0 0 0-0.1z"/><path class="a" d="m214.5 277.7v-1.4c0 0 0 0.4 0 0.8q0 0.3 0 0.6"/><path class="a" d="m214.4 277.7h0.1q0-0.3 0-0.7 0 0.3 0 0.7"/><path class="a" d="m205.8 254.7c-4.8 0-8.6 3.1-8.6 7v15.9c0 3.9 3.8 7 8.6 7 4.8 0 8.7-3.1 8.7-7h-0.1q0-0.3 0-0.6c0-0.5 0-0.8 0-0.8v-14.5c0-3.9-3.9-7-8.7-7m2 7v16.4c-0.1 1-1 1.7-2 1.7-0.6 0-1.1-0.3-1.5-0.7q-0.3-0.4-0.4-0.9c0 0 0-0.1 0-0.1 0-0.1 0-0.2 0-0.3v-16.2c0-1 0.7-1.8 1.7-2h0.3c0.5 0 1 0.2 1.4 0.6 0.3 0.4 0.5 0.9 0.5 1.4z"/><path class="c" d="m207.8 261.6c0-0.5-0.2-1-0.6-1.4-0.3-0.4-0.8-0.6-1.4-0.6h-0.3c-0.9 0.2-1.6 1-1.6 2v16.2q0 0.1 0 0.3c0 0.1 0 0 0 0.1q0.1 0.5 0.4 0.9c0.4 0.4 0.9 0.7 1.5 0.7 1 0 1.8-0.8 2-1.7v-16.5"/><path class="a" d="m163.3 24.3c0-2.3-1.9-4.1-4.1-4.1h-7.6v7.7h-1.1v2.7h1.1v9.2h7.6c2.3 0 4.1-1.8 4.1-4q0-0.1 0-0.1v-11.1c0 0 0-0.1 0-0.1q0-0.1 0-0.3m-5.5 12.4h-1.9v-6.1h1.6v-2.7h-1.5v-4.4h1.7q0.1 0 0.2 0h0.1q0.1 0 0.1 0h0.1c0.2 0.2 0.4 0.5 0.3 0.8v11q0.1 0.2 0 0.4c-0.2 0.4-0.5 0.7-0.9 0.8"/><path class="b" d="m158.7 28.3v-3.8c0-0.3-0.1-0.7-0.3-0.9h-0.1q-0.1 0-0.1 0h-0.1q-0.2 0-0.3 0h-1.8v4.6h1.5v2.7h-1.5v6h1.8c0.4-0.1 0.7-0.3 0.8-0.7q0.1-0.2 0.1-0.5z"/><path class="b" d="m171.5 23.9v-0.3h-0.5v0.3l-1.2 9.2h2.6z"/><path class="a" d="m216.7 24.1c-0.2-2.5-2.7-4.5-5.9-4.5-3.2 0-5.9 2.1-5.9 4.8v10.9c0 2.3 2.1 4.3 4.8 4.7q0.6 0.1 1.1 0.1h0.7c2.9-0.3 5.2-2.3 5.2-4.8v-11q0-0.1 0-0.2m-5.8 12.5q-0.1 0-0.2 0-0.4 0-0.6-0.2c-0.4-0.2-0.6-0.6-0.7-1v-11.2c0.1-0.7 0.7-1.1 1.4-1.1 0.6-0.1 1.2 0.4 1.3 1.1v11.2c0 0.6-0.5 1.2-1.1 1.3"/><path class="b" d="m210.8 23.1c-0.7 0-1.3 0.4-1.4 1.1v11.3c0 0.4 0.3 0.8 0.7 1q0.2 0.2 0.6 0.2 0.1 0 0.2 0c0.7-0.1 1.1-0.6 1.2-1.3v-11.2c-0.1-0.6-0.7-1.1-1.4-1"/><path class="a" d="m224.4 19.6c-3.3 0-6 2.1-6 4.8v10.9c0 2.6 2.8 4.8 6 4.8 3.2 0 5.9-2.2 5.9-4.8v-3.4h-4.5v3.4c0 0.7-0.5 1.3-1.2 1.4h-0.2q-0.3 0-0.6-0.2c-0.4-0.2-0.7-0.6-0.7-1.1v-11c0-0.6 0.4-1.1 1-1.2h0.3c0.7 0 1.4 0.6 1.4 1.3v2.9h4.4v-3.1c0-2.7-2.6-4.7-5.9-4.7"/><path class="b" d="m130.2 1.6v94.4l64.4-41.9 0.3-0.2 0.9-0.5c1.2-0.6 2.4-0.9 3.7-0.9 2.7 0 5.2 1.3 6.8 3.5 1.6 2.2 2 5.1 1.2 7.6q-0.8 1.7-1.8 3.1l-52.7 82.3q3.1 2.2 5.8 5l6.2-3.6 8.3 14.4-6.1 3.4c2.3 7.4 2.3 15.3 0 22.7l6 3.5-8.3 14.3-6-3.5c-5.3 5.7-12.1 9.6-19.6 11.2v7.1h-9.1v19.8c1.9-4.8 7-4.7 8.5-4.7l109.5-0.2v-236.8zm33.1 23v11.2c0 2.3-1.8 4.1-4.1 4.1h-7.6v-9.3h-1.1v-2.7h1.1v-7.7h7.6c2.3 0 4.1 1.8 4.1 4q0 0.1 0 0.3 0 0 0 0.1m10 19.9h-4.3v-2.6h4.3zm-0.2-4.6l-0.3-3.7h-3.3l-0.5 3.7h-4.3l3.6-19.7h5.9l3.9 19.7zm10.7 0h-4.5v-19.7h4.5zm18.9 0h-4.5v-8.4h-2.5v8.4h-4.8v-19.7h4.7v7.4h2.5v-7.4h4.5zm10.3 4.7h-4.3v-2.6h4.3zm3.8-20.1v10.9c0 2.5-2.4 4.5-5.3 4.8q-0.9 0.1-1.7 0c-2.7-0.5-4.8-2.4-4.8-4.7v-11c0-2.8 2.7-4.8 5.9-4.8 3.1 0 5.7 2 5.8 4.5 0 0 0 0.2 0 0.2zm13.6 1.5v1.6h-4.5v-2.9c0-0.8-0.6-1.4-1.4-1.4h-0.2c-0.6 0.2-1.1 0.7-1.1 1.3v11c0.1 0.5 0.3 0.9 0.7 1.1q0.3 0.2 0.7 0.2h0.2c0.6-0.1 1.1-0.7 1.1-1.4v-3.4h4.5v3.4c0 2.7-2.6 4.8-5.9 4.8-3.3 0-5.9-2.1-5.9-4.8v-10.9c0-2.7 2.7-4.8 5.9-4.8 3.2 0 5.9 2.2 5.9 4.8z"/></svg>